<?xml version="1.0" encoding="utf-8" ?><svg xmlns="http://www.w3.org/2000/svg" xmlns:xlink="http://www.w3.org/1999/xlink" width="1000" height="1000" viewBox="0 0 1000 1000"><defs><linearGradient id="gradient_0" gradientUnits="userSpaceOnUse" x1="635.03247" y1="641.83185" x2="289.05847" y2="287.38315"><stop offset="0" stop-color="#6623A0"/><stop offset="1" stop-color="#0073D0"/></linearGradient></defs><path fill="url(#gradient_0)" transform="scale(0.976562 0.976562)" d="M428.881 106.062C455.781 105.625 483.502 105.96 510.461 105.957L660.251 105.942L727.074 105.785C744.796 105.71 765.452 104.932 783.284 107.878C807.985 111.96 836.661 124.429 855.797 141.02C855.87 141.097 855.943 141.174 856.016 141.251C878.39 158.457 896.652 187.536 905.2 214.266C911.929 235.306 913.842 260.137 913.175 282.143C914.072 317.007 913.044 354.761 913.003 389.933L912.782 611.495C913.161 654.994 913.105 698.495 912.615 741.993C912.468 748.928 913.205 756.054 913.21 763.016C913.215 771.763 912.157 780.976 910.548 789.595C905.006 819.089 891.119 846.375 870.537 868.216C838.437 901.944 799.323 918.333 752.946 918.397C711.963 918.453 670.981 918.317 629.995 918.179L423.083 917.995L346.292 918.008C332.714 918.015 315.706 917.605 302.347 918.344C291.265 918.645 280.139 917.796 269.065 918.102C250.091 918.625 233.049 915.703 215.126 909.292C192.712 901.104 174.013 889.638 157.031 872.767C135.772 851.421 121.031 824.463 114.532 795.046C109.575 771.642 111.007 746.486 111.038 722.527L111.074 642.735L111.226 334.705C111.148 314.831 111.643 292.636 111.115 273.054L111.093 272.066C110.281 226.265 123.148 186.79 155.511 153.602C179.155 129.707 209.636 113.744 242.743 107.919C251.597 106.443 261.397 106.019 270.39 105.916L378.505 105.946L411.942 105.913C416.2 105.909 425.02 105.673 428.881 106.062Z"/><defs><linearGradient id="gradient_1" gradientUnits="userSpaceOnUse" x1="570.98456" y1="574.04883" x2="244.88902" y2="235.78764"><stop offset="0" stop-color="#8A51EE"/><stop offset="1" stop-color="#23C2EC"/></linearGradient></defs><path fill="url(#gradient_1)" transform="scale(0.976562 0.976562)" d="M428.881 106.062C455.781 105.625 483.502 105.96 510.461 105.957L660.251 105.942L727.074 105.785C744.796 105.71 765.452 104.932 783.284 107.878C807.985 111.96 836.661 124.429 855.797 141.02C855.87 141.097 855.943 141.174 856.016 141.251C878.39 158.457 896.652 187.536 905.2 214.266C911.929 235.306 913.842 260.137 913.175 282.143C912.022 283.118 907.159 283.05 905.324 283.109C903.687 284.501 899.068 288.335 898.183 289.699C893.182 297.4 892.618 299.912 883.863 303.41C880.694 304.675 874.243 309.751 871.331 312.028C862.336 320.88 854.939 330.133 847.192 340.004C843.946 344.141 839.07 348.431 835.564 352.749C832.32 356.745 828.71 362.141 825.507 365.828C821.876 370.007 813.425 374.306 808.938 378.229C804.867 381.787 802.729 385.666 799.126 389.125C790.441 371.399 779.291 353.736 767.057 338.274C764.393 334.908 761.801 331.488 759.222 328.056C759.208 326.024 759.258 321.066 757.162 320.185C757.755 314.396 757.512 307.291 757.41 301.4C756.716 298.696 756.363 294.654 755.414 291.009C750.22 271.275 737.351 254.438 719.672 244.247C700.27 232.968 680.373 231.963 659.095 237.693C656.613 234.493 646.089 229.64 642.006 227.784C609.805 213.146 580.171 203.468 545.098 199.022C462.942 189.381 380.308 212.632 315.235 263.7C250.193 314.302 209.828 391.395 199.597 472.89C189.264 555.194 211.58 640.623 262.39 706.529C263.387 707.821 264.402 709.1 265.495 710.311C263.198 712.888 260.154 716.034 259.013 719.288C265.355 720.138 268.369 719.783 274.392 718.344C277.447 723.192 280.789 724.306 282.946 728.945C286.627 731.859 290.325 736.432 293.794 739.743C299.65 745.332 306.074 751.578 312.338 756.656C316.868 760.361 321.492 763.95 326.206 767.42C328.499 769.081 337.919 775.221 339.158 776.657C355.48 786.575 370.985 796.429 388.707 803.618C390.781 804.459 393.935 805.701 395.837 806.7C397.178 807.897 397.822 807.983 397.936 809.297C394.902 812.851 390.584 815.259 388.034 818.113C384.645 821.905 381.233 825.789 377.765 829.591L349.326 860.846L326.439 885.897C322 890.707 317.174 895.76 312.929 900.728C311.328 902.602 307.467 910.016 307.819 912.455C307.887 912.924 308.978 916.052 309.221 916.725L308.871 917.223C306.308 917.302 304.536 917.074 302.347 918.344C291.265 918.645 280.139 917.796 269.065 918.102C250.091 918.625 233.049 915.703 215.126 909.292C192.712 901.104 174.013 889.638 157.031 872.767C135.772 851.421 121.031 824.463 114.532 795.046C109.575 771.642 111.007 746.486 111.038 722.527L111.074 642.735L111.226 334.705C111.148 314.831 111.643 292.636 111.115 273.054L111.093 272.066C110.281 226.265 123.148 186.79 155.511 153.602C179.155 129.707 209.636 113.744 242.743 107.919C251.597 106.443 261.397 106.019 270.39 105.916L378.505 105.946L411.942 105.913C416.2 105.909 425.02 105.673 428.881 106.062Z"/><defs><linearGradient id="gradient_2" gradientUnits="userSpaceOnUse" x1="255.89969" y1="253.1799" x2="190.23039" y2="186.30766"><stop offset="0" stop-color="#2ABEEB"/><stop offset="1" stop-color="#17D5EB"/></linearGradient></defs><path fill="url(#gradient_2)" transform="scale(0.976562 0.976562)" d="M270.39 105.916L378.505 105.946L411.942 105.913C416.2 105.909 425.02 105.673 428.881 106.062C426.675 107.404 386.317 106.516 379.97 106.864C384.215 107.284 392.401 107.89 396.219 108.964L396.74 109.692C396.117 112.964 387.034 120.595 384.309 123.28L354.909 152.061L176.004 326.99L130.761 371.27C127.12 374.837 124.374 378.447 121.046 382.223C120.395 382.963 116.625 383.706 116.152 384.515C115.314 385.946 114.828 386.304 113.518 387.16C112.743 389.646 113.082 393.944 112.766 394.45C112.759 381.118 112.894 367.78 112.327 354.465C112.037 347.647 112.927 341.337 111.226 334.705C111.148 314.831 111.643 292.636 111.115 273.054L111.093 272.066C110.281 226.265 123.148 186.79 155.511 153.602C179.155 129.707 209.636 113.744 242.743 107.919C251.597 106.443 261.397 106.019 270.39 105.916Z"/><path fill="#46E3F3" transform="scale(0.976562 0.976562)" d="M111.115 273.054L111.093 272.066C110.281 226.265 123.148 186.79 155.511 153.602C179.155 129.707 209.636 113.744 242.743 107.919C251.597 106.443 261.397 106.019 270.39 105.916C269.315 108.026 268.006 110.773 267.128 112.695C265.653 114.677 263.531 117.428 261.895 119.147C258.253 122.973 254.753 128.351 250.871 131.752C241.418 140.034 233.296 150.286 224.267 158.718C218.625 163.986 209.629 167.661 203.938 173.201C199.791 176.778 197.109 182.54 193.295 186.226C189.441 189.95 183.006 192.588 179.529 196.705C172.114 205.485 166.5 216.77 158.936 225.49C154.799 230.258 149.48 235.265 145.085 239.909C142.249 242.905 137.064 248.489 134.143 250.796C129.275 254.641 124.963 256.268 120.016 260.684C114.356 265.736 114.508 271.167 111.934 273.051L111.115 273.054Z"/><path fill="#9B5CE1" transform="scale(0.976562 0.976562)" d="M856.016 141.251C878.39 158.457 896.652 187.536 905.2 214.266C911.929 235.306 913.842 260.137 913.175 282.143C912.022 283.118 907.159 283.05 905.324 283.109C903.687 284.501 899.068 288.335 898.183 289.699C893.182 297.4 892.618 299.912 883.863 303.41C880.694 304.675 874.243 309.751 871.331 312.028C862.336 320.88 854.939 330.133 847.192 340.004C843.946 344.141 839.07 348.431 835.564 352.749C832.32 356.745 828.71 362.141 825.507 365.828C821.876 370.007 813.425 374.306 808.938 378.229C804.867 381.787 802.729 385.666 799.126 389.125C790.441 371.399 779.291 353.736 767.057 338.274C764.393 334.908 761.801 331.488 759.222 328.056C759.208 326.024 759.258 321.066 757.162 320.185C757.755 314.396 757.512 307.291 757.41 301.4C759.672 302.378 759.913 303.034 761.484 305.082C765.762 297.124 774.598 289.546 776.065 280.184C776.313 278.598 775.53 272.803 775.567 270.656C775.685 263.712 780.177 264.036 783.491 259.447C784.079 258.632 784.868 254.548 785.791 253.053C787.115 250.907 790.157 248.496 790.894 246.374C793.072 240.107 793.294 236.749 797.024 230.963C803.528 220.876 812.292 214.299 819.951 205.662C823.503 201.657 829.276 192.157 832.408 187.441C834.362 184.498 836.426 179.598 838.6 176.367C839.896 174.441 844.307 170.203 844.887 169.06C850.889 157.248 844.961 152.283 856.016 141.251Z"/><path fill="#9B5CE1" transform="scale(0.976562 0.976562)" d="M339.158 776.657C355.48 786.575 370.985 796.429 388.707 803.618C390.781 804.459 393.935 805.701 395.837 806.7C397.178 807.897 397.822 807.983 397.936 809.297C394.902 812.851 390.584 815.259 388.034 818.113C384.645 821.905 381.233 825.789 377.765 829.591L349.326 860.846L326.439 885.897C322 890.707 317.174 895.76 312.929 900.728C311.328 902.602 307.467 910.016 307.819 912.455C307.887 912.924 308.978 916.052 309.221 916.725L308.871 917.223C306.308 917.302 304.536 917.074 302.347 918.344C291.265 918.645 280.139 917.796 269.065 918.102C250.091 918.625 233.049 915.703 215.126 909.292C215.849 908.836 216.389 908.874 217.335 908.703C219.543 909.722 220.309 910.27 222.667 910.411C222.841 908.946 223.206 906.501 224.253 905.368C228.983 900.251 234.288 895.659 239.002 890.514C243.824 885.251 248.82 880.154 253.709 874.962L328.203 795.58C330.397 793.269 332.397 791.193 334.722 789.026C336.838 787.055 342.475 783.472 343.715 781.466C342.627 778.845 339.921 779.045 339.158 776.657Z"/><path fill="#3C33AD" transform="scale(0.976562 0.976562)" d="M259.013 719.288C265.355 720.138 268.369 719.783 274.392 718.344C277.447 723.192 280.789 724.306 282.946 728.945C274.647 724.182 261.173 730.279 259.013 719.288Z"/><defs><linearGradient id="gradient_3" gradientUnits="userSpaceOnUse" x1="885.13232" y1="850.28363" x2="597.18835" y2="587.89185"><stop offset="0" stop-color="#D52968"/><stop offset="1" stop-color="#A053D4"/></linearGradient></defs><path fill="url(#gradient_3)" transform="scale(0.976562 0.976562)" d="M913.175 282.143C914.072 317.007 913.044 354.761 913.003 389.933L912.782 611.495C913.161 654.994 913.105 698.495 912.615 741.993C912.468 748.928 913.205 756.054 913.21 763.016C913.215 771.763 912.157 780.976 910.548 789.595C905.006 819.089 891.119 846.375 870.537 868.216C838.437 901.944 799.323 918.333 752.946 918.397C711.963 918.453 670.981 918.317 629.995 918.179L423.083 917.995L346.292 918.008C332.714 918.015 315.706 917.605 302.347 918.344C304.536 917.074 306.308 917.302 308.871 917.223L309.221 916.725C308.978 916.052 307.887 912.924 307.819 912.455C307.467 910.016 311.328 902.602 312.929 900.728C317.174 895.76 322 890.707 326.439 885.897L349.326 860.846L377.765 829.591C381.233 825.789 384.645 821.905 388.034 818.113C390.584 815.259 394.902 812.851 397.936 809.297C397.822 807.983 397.178 807.897 395.837 806.7C416.475 814.06 427.293 817.605 449.415 821.853C451.226 820.471 452.928 820.323 453.689 818.989L452.834 816.743C453.377 815.062 457.61 812.182 459.039 810.509C468.448 799.492 478.509 789.029 488.272 778.329C491.615 774.664 494.42 772.927 496.579 768.333L496.901 767.637C499.438 768.009 499.598 768.157 500.717 766.096C500.066 764.089 497.626 762.903 495.611 761.456L495.623 760.353C485.695 751.491 484.42 736.417 492.718 726.013C501.016 715.609 515.997 713.501 526.844 721.21L527.615 721.131C531.377 723.374 534.689 728.26 537.404 731.84C538.436 730.683 541.262 724.718 542.193 722.946C544.228 719.091 546.738 715.506 549.665 712.275C557.8 703.355 566.323 694.456 574.982 686.069C576.708 684.397 578.028 681.413 579.228 680.346C583.507 676.542 589.991 672.577 593.924 668.568C597.387 665.038 601.329 657.573 604.579 653.934C610.891 646.869 617.749 639.937 624.103 632.883C630.952 625.279 638.198 618.219 645.05 610.665C647.085 608.42 649.47 606.266 651.305 603.915C650.852 602.058 650.823 597.966 653.005 597.206C658.568 592.492 665.748 584.981 671.824 579.79C676.792 575.547 689.03 565.186 693.054 560.881C696.699 557.921 700.232 554.825 703.647 551.602L702.985 551.178C703.93 549.407 707.602 541.967 708.962 541.535L709.227 542.016L708.23 541.748L709.455 542.536L709.127 541.789L709.834 542.91C711.295 542.57 711.248 542.333 712.269 541.145L712.049 539.311C713.683 535.197 726.198 523.243 729.733 519.853C731.248 519.905 731.522 520.034 732.936 519.459C732.881 518.711 732.693 517.127 732.986 516.468C734.408 513.264 745.058 506.161 746.5 503.154C749.771 496.328 773.33 473.895 780.463 466.239C784.345 462.073 787.69 457.476 791.654 453.38C797.268 447.581 808.841 437.91 811.366 430.64C811.751 429.531 811.264 430.421 812.103 429.198L814.2 429.209C813.901 425.093 811.053 421.456 810.821 416.771C810.06 412.079 801.459 394.912 799.126 389.125C802.729 385.666 804.867 381.787 808.938 378.229C813.425 374.306 821.876 370.007 825.507 365.828C828.71 362.141 832.32 356.745 835.564 352.749C839.07 348.431 843.946 344.141 847.192 340.004C854.939 330.133 862.336 320.88 871.331 312.028C874.243 309.751 880.694 304.675 883.863 303.41C892.618 299.912 893.182 297.4 898.183 289.699C899.068 288.335 903.687 284.501 905.324 283.109C907.159 283.05 912.022 283.118 913.175 282.143Z"/><defs><linearGradient id="gradient_4" gradientUnits="userSpaceOnUse" x1="742.24292" y1="727.55139" x2="630.92145" y2="623.9967"><stop offset="0" stop-color="#8D1990"/><stop offset="1" stop-color="#6927A0"/></linearGradient></defs><path fill="url(#gradient_4)" transform="scale(0.976562 0.976562)" d="M810.821 416.771C814.807 425.242 819.04 442.449 820.969 451.641C832.575 507.636 828.465 565.751 809.092 619.555C780.321 699.478 720.99 764.705 644.142 800.897C625.661 809.575 608.332 814.11 588.585 818.54C539.452 829.563 498.674 830.958 449.415 821.853C451.226 820.471 452.928 820.323 453.689 818.989L452.834 816.743C453.377 815.062 457.61 812.182 459.039 810.509C468.448 799.492 478.509 789.029 488.272 778.329C491.615 774.664 494.42 772.927 496.579 768.333L496.901 767.637C499.438 768.009 499.598 768.157 500.717 766.096C500.066 764.089 497.626 762.903 495.611 761.456L495.623 760.353C485.695 751.491 484.42 736.417 492.718 726.013C501.016 715.609 515.997 713.501 526.844 721.21L527.615 721.131C531.377 723.374 534.689 728.26 537.404 731.84C538.436 730.683 541.262 724.718 542.193 722.946C544.228 719.091 546.738 715.506 549.665 712.275C557.8 703.355 566.323 694.456 574.982 686.069C576.708 684.397 578.028 681.413 579.228 680.346C583.507 676.542 589.991 672.577 593.924 668.568C597.387 665.038 601.329 657.573 604.579 653.934C610.891 646.869 617.749 639.937 624.103 632.883C630.952 625.279 638.198 618.219 645.05 610.665C647.085 608.42 649.47 606.266 651.305 603.915C650.852 602.058 650.823 597.966 653.005 597.206C658.568 592.492 665.748 584.981 671.824 579.79C676.792 575.547 689.03 565.186 693.054 560.881C696.699 557.921 700.232 554.825 703.647 551.602L702.985 551.178C703.93 549.407 707.602 541.967 708.962 541.535L709.227 542.016L708.23 541.748L709.455 542.536L709.127 541.789L709.834 542.91C711.295 542.57 711.248 542.333 712.269 541.145L712.049 539.311C713.683 535.197 726.198 523.243 729.733 519.853C731.248 519.905 731.522 520.034 732.936 519.459C732.881 518.711 732.693 517.127 732.986 516.468C734.408 513.264 745.058 506.161 746.5 503.154C749.771 496.328 773.33 473.895 780.463 466.239C784.345 462.073 787.69 457.476 791.654 453.38C797.268 447.581 808.841 437.91 811.366 430.64C811.751 429.531 811.264 430.421 812.103 429.198L814.2 429.209C813.901 425.093 811.053 421.456 810.821 416.771Z"/><path fill="#FEFEFE" transform="scale(0.976562 0.976562)" d="M495.623 760.353C485.695 751.491 484.42 736.417 492.718 726.013C501.016 715.609 515.997 713.501 526.844 721.21C534.417 726.592 538.393 735.719 537.177 744.928C535.962 754.138 529.754 761.921 521.045 765.154C512.336 768.387 502.553 766.539 495.623 760.353Z"/><defs><linearGradient id="gradient_5" gradientUnits="userSpaceOnUse" x1="511.32242" y1="729.37537" x2="512.64648" y2="754.04584"><stop offset="0" stop-color="#4D0F81"/><stop offset="1" stop-color="#6F24A8"/></linearGradient></defs><path fill="url(#gradient_5)" transform="scale(0.976562 0.976562)" d="M509.724 728.722C516.957 727.364 523.926 732.112 525.309 739.34C526.692 746.568 521.969 753.553 514.745 754.962C507.487 756.377 500.459 751.625 499.069 744.361C497.679 737.097 502.456 730.087 509.724 728.722Z"/><path fill="#9B5CE1" transform="scale(0.976562 0.976562)" d="M703.647 551.602C716.277 540.478 728.838 529.277 741.332 518C747.142 512.807 752.848 507.552 759.003 502.68C763.255 499.314 770.704 500.247 770.68 506.724C770.671 509.153 768.04 511.345 766.518 512.981C760.101 518.989 753.286 524.864 746.689 530.703L709.904 563.285C700.696 571.488 691.539 579.747 682.432 588.063C676.77 593.2 669.969 599.6 663.986 604.2C663.136 604.849 662.276 605.486 661.408 606.111C655.65 610.288 650.859 604.05 653.005 597.206C658.568 592.492 665.748 584.981 671.824 579.79C676.792 575.547 689.03 565.186 693.054 560.881C696.699 557.921 700.232 554.825 703.647 551.602Z"/><path fill="#9B5CE1" transform="scale(0.976562 0.976562)" d="M639.094 656.994C638.718 655.825 638.578 655.482 638.971 654.256C639.895 651.373 643.374 648.339 645.521 646.259C653.051 638.967 661.335 632.317 669.148 625.311C681.54 614.199 755.604 546.47 762.125 544.074C763.568 543.543 765.246 543.505 766.602 544.305C768.438 545.39 769.351 547.732 769.593 549.758C769.88 552.167 768.866 553.677 767.403 555.47C767.243 556.967 767.217 557.911 766.072 559.079C765.342 559.824 764.284 560.149 763.262 559.942C763.014 559.86 762.765 559.779 762.516 559.697C751.648 568.471 740.227 578.895 729.771 588.209C713.996 602.208 698.334 616.336 682.788 630.59C678.825 634.236 666.562 644.118 663.908 647.559L664.47 648.558C661.624 652.927 647.451 668.198 641.814 663.53C639.75 661.82 638.554 659.736 639.094 656.994Z"/><path fill="#6A1386" transform="scale(0.976562 0.976562)" d="M663.908 647.559L664.47 648.558C661.624 652.927 647.451 668.198 641.814 663.53C639.75 661.82 638.554 659.736 639.094 656.994C640.882 659.723 641.371 660.868 644.395 661.771C648.661 661.205 660.167 650.727 663.908 647.559Z"/><path fill="#6A1386" transform="scale(0.976562 0.976562)" d="M767.403 555.47C767.243 556.967 767.217 557.911 766.072 559.079C765.342 559.824 764.284 560.149 763.262 559.942C763.014 559.86 762.765 559.779 762.516 559.697C763.952 558.348 765.878 556.784 767.403 555.47Z"/><path fill="#9B5CE1" transform="scale(0.976562 0.976562)" d="M659.161 692.764C656.662 691.658 654.933 690.865 654.067 688.109C653.564 686.773 653.888 683.46 654.838 682.413C659.61 677.157 665.62 672.114 670.932 667.453L701.852 640.339C719.363 624.907 736.364 608.929 754.007 593.666C755.843 592.364 759.873 588.291 762.111 588.006C769.669 587.045 770.286 595.831 766.044 600.324L767.333 600.839C766.761 602.211 765.842 603.138 764.739 604.108C744.037 622.337 723.254 640.46 703.135 659.332C700.274 662.016 696.38 664.973 693.311 667.482C692.014 667.522 692.609 667.664 691.55 666.861C681.459 674.41 671.729 686.912 659.161 692.764Z"/><path fill="#6A1386" transform="scale(0.976562 0.976562)" d="M766.044 600.324L767.333 600.839C766.761 602.211 765.842 603.138 764.739 604.108C744.037 622.337 723.254 640.46 703.135 659.332C700.274 662.016 696.38 664.973 693.311 667.482C692.014 667.522 692.609 667.664 691.55 666.861C715.713 644.138 741.481 622.606 766.044 600.324Z"/><path fill="#9B5CE1" transform="scale(0.976562 0.976562)" d="M655.499 734.296C654.374 732.189 652.26 728.728 654.123 726.566C657.676 722.441 662.068 718.952 666.158 715.351L683.713 699.711C698.478 686.311 713.317 672.993 728.229 659.756C736.111 652.863 743.972 646.23 752.256 639.684C757.564 635.489 762.58 637.929 762.804 644.565C762.909 647.684 757.606 651.561 755.232 653.724C755.422 657.672 745.21 665.175 741.966 668.009C734.655 674.397 727.39 680.838 720.171 687.33L686.178 717.729C679.319 723.965 672.489 730.39 665.459 736.438C662.277 739.175 656.55 739.594 655.499 734.296Z"/><path fill="#6A1386" transform="scale(0.976562 0.976562)" d="M755.232 653.724C755.422 657.672 745.21 665.175 741.966 668.009C734.655 674.397 727.39 680.838 720.171 687.33L686.178 717.729C679.319 723.965 672.489 730.39 665.459 736.438C662.277 739.175 656.55 739.594 655.499 734.296C659.428 736.371 660.865 736.732 664.509 733.629C695.172 707.514 724.737 680.044 755.232 653.724Z"/><path fill="#FEFEFE" transform="scale(0.976562 0.976562)" d="M594.303 716.755C608.119 715.148 620.63 725.027 622.27 738.84C623.909 752.653 614.059 765.187 600.25 766.859C586.395 768.537 573.81 758.647 572.165 744.788C570.52 730.929 580.44 718.367 594.303 716.755Z"/><path fill="#6A1386" transform="scale(0.976562 0.976562)" d="M595.454 728.746C602.638 727.8 609.23 732.853 610.181 740.036C611.133 747.219 606.084 753.814 598.901 754.771C591.712 755.728 585.109 750.674 584.156 743.484C583.204 736.294 588.263 729.694 595.454 728.746Z"/><path fill="#FEFEFE" transform="scale(0.976562 0.976562)" d="M659.095 237.693C680.373 231.963 700.27 232.968 719.672 244.247C737.351 254.438 750.22 271.275 755.414 291.009C756.363 294.654 756.716 298.696 757.41 301.4C757.512 307.291 757.755 314.396 757.162 320.185C754.569 335.006 750.274 345.791 740.605 357.395C750.578 365.56 755.431 367.589 766.988 373.135C749.588 378.63 740.625 378.364 723.713 372.31C719.493 374.76 715.119 376.934 710.617 378.819C670.876 395.254 628.413 375.262 612.63 336.01C605.198 317.812 605.424 297.385 613.256 279.356C622.402 258.328 638.183 245.806 659.095 237.693Z"/><path fill="#3C33AD" transform="scale(0.976562 0.976562)" d="M676.132 319.079C678.431 318.947 685.195 318.444 686.763 319.928C691.205 324.132 689.552 333.113 686.449 337.335C682.501 337.589 678.424 338.267 675.324 335.274C671.427 331.51 672.543 322.586 676.132 319.079Z"/><path fill="#3C33AD" transform="scale(0.976562 0.976562)" d="M712.738 319.204C714.308 319.244 716.261 319.12 717.452 320.338C721.37 324.342 721.26 331.865 717.668 336.033C716.274 337.651 713.591 337.516 711.649 337.586C709.965 337.505 707.959 337.563 706.682 336.393C702.46 332.522 702.441 325.096 706.226 320.914C708.016 318.936 710.316 319.271 712.738 319.204Z"/><path fill="#3C33AD" transform="scale(0.976562 0.976562)" d="M649.217 319.205C650.353 319.023 653.786 319.073 654.742 319.454C659.929 321.523 659.618 329.619 657.842 333.794C656.616 336.676 655.429 337.06 652.951 338.053C642.532 338.361 640.519 328.79 644.739 320.5C645.41 319.183 647.791 319.341 649.217 319.205Z"/><path fill="#3C33AD" transform="scale(0.976562 0.976562)" d="M650.487 285.195C652.067 285.106 657.699 285.206 658.047 287.185C658.635 290.534 659.168 298.63 657.637 301.557C655.844 302.857 654.691 302.779 652.406 303.094C640.924 301.845 642.824 298.572 644.269 286.907C644.408 285.792 649.28 285.328 650.487 285.195Z"/><path fill="#3C33AD" transform="scale(0.976562 0.976562)" d="M674.756 285.531C678.102 285.353 681.477 284.921 684.729 285.852C691.725 287.853 689.545 297.248 687.428 302.291C672.2 305.104 672.882 297.376 674.756 285.531Z"/><path fill="#3C33AD" transform="scale(0.976562 0.976562)" d="M706.356 285.497C709.48 285.428 714.681 284.998 717.362 286.427C721.599 288.685 719.993 299.259 717.847 302.442C714.538 302.524 711.123 302.966 708.038 301.557C701.582 298.608 703.425 290.576 706.356 285.497Z"/><path fill="#FEFEFE" transform="scale(0.976562 0.976562)" d="M280.026 694.572C269.039 678.883 263.634 664.311 267.03 644.815C269.956 628.139 279.404 613.316 293.285 603.623C306.953 593.935 323.945 590.155 340.432 593.136C356.913 596.045 371.501 605.537 380.837 619.427C390.349 633.02 393.929 649.895 390.754 666.179C387.279 683.369 377.102 698.467 362.473 708.137C348.891 717.143 332.273 720.344 316.318 717.028C309.386 715.576 304.821 713.517 298.557 710.382C289.498 714.693 284.23 716.336 274.392 718.344C268.369 719.783 265.355 720.138 259.013 719.288C260.154 716.034 263.198 712.888 265.495 710.311C270.374 705.097 275.218 699.85 280.026 694.572Z"/><path fill="#3C33AD" transform="scale(0.976562 0.976562)" d="M302.553 642.141C318.878 641.502 336.195 641.918 352.594 642.251C355.507 642.31 357.92 642.48 358.522 645.522C357.934 647.508 358.016 647.436 356.6 648.913C340.129 649.339 323.46 649.836 306.992 648.803C304.278 648.633 301.961 648.685 301 645.995C301.274 644.006 301.441 643.886 302.553 642.141Z"/><path fill="#3C33AD" transform="scale(0.976562 0.976562)" d="M301.964 667.094C303.97 667.033 305.977 666.995 307.985 666.979L336.295 666.95C340.808 666.932 355.528 666.108 358.177 668.731C358.318 670.851 358.122 670.398 356.917 672.616C345.009 673.998 316.108 672.785 303.054 672.587C301.752 672.567 301.577 671.889 300.985 671.014C300.916 669.043 301.127 668.824 301.964 667.094Z"/><path fill="#6A1386" transform="scale(0.976562 0.976562)" d="M693.054 560.881C694.86 556.657 698.886 553.024 702.985 551.178L703.647 551.602C700.232 554.825 696.699 557.921 693.054 560.881Z"/><path fill="#FEFEFE" transform="scale(0.976562 0.976562)" d="M458.004 399.938C456.658 378.235 456.031 357.65 470.927 340.595C480.357 329.82 493.677 323.227 507.963 322.264C522.262 321.388 536.322 326.235 547.044 335.735C567.107 353.591 564.81 375.616 564.478 400.001L564.392 407.499C564.337 414.051 564.179 420.995 564.33 427.518C564.406 430.114 564.52 432.326 564.312 434.928C564.683 443.88 564.495 453.883 564.513 462.912C564.455 465.447 564.352 468.011 564.455 470.54C565.311 471.784 565.064 475.357 564.975 476.98C564.339 490.344 558.337 502.885 548.329 511.763C537.056 521.832 522.239 527.002 507.149 526.133C492.533 525.185 478.9 518.441 469.278 507.399C460.329 497.138 456.524 484.241 457.465 470.721C457.591 468.604 457.507 465.193 457.518 462.986C463.461 463.145 472.484 463.467 478.251 462.907C473.536 462.417 462.675 462.586 457.496 462.509C457.439 456.474 457.003 440.138 457.785 434.996C458.243 432.083 458.065 430.294 457.775 427.448C457.124 423.7 457.52 411.483 457.968 407.489L458.004 399.938Z"/><path fill="#FEFEFE" transform="scale(0.976562 0.976562)" d="M458.004 399.938C456.658 378.235 456.031 357.65 470.927 340.595C480.357 329.82 493.677 323.227 507.963 322.264C522.262 321.388 536.322 326.235 547.044 335.735C567.107 353.591 564.81 375.616 564.478 400.001L564.392 407.499L457.968 407.489L458.004 399.938Z"/><path fill="#3C33AD" transform="scale(0.976562 0.976562)" d="M458.004 399.938L564.478 400.001L564.392 407.499L457.968 407.489L458.004 399.938Z"/><path fill="#FEFEFE" transform="scale(0.976562 0.976562)" d="M478.251 462.907C505.385 461.973 536.942 463.015 564.513 462.912C564.455 465.447 564.352 468.011 564.455 470.54C565.311 471.784 565.064 475.357 564.975 476.98C564.339 490.344 558.337 502.885 548.329 511.763C537.056 521.832 522.239 527.002 507.149 526.133C492.533 525.185 478.9 518.441 469.278 507.399C460.329 497.138 456.524 484.241 457.465 470.721C457.591 468.604 457.507 465.193 457.518 462.986C463.461 463.145 472.484 463.467 478.251 462.907Z"/><path fill="#3C33AD" transform="scale(0.976562 0.976562)" d="M478.251 462.907C505.385 461.973 536.942 463.015 564.513 462.912C564.455 465.447 564.352 468.011 564.455 470.54C528.921 471.001 493.036 469.949 457.465 470.721C457.591 468.604 457.507 465.193 457.518 462.986C463.461 463.145 472.484 463.467 478.251 462.907Z"/><path fill="#3C33AD" transform="scale(0.976562 0.976562)" d="M457.775 427.448C463.496 427.31 476.082 426.235 480.676 428.902C481.78 430.54 481.568 429.663 481.334 431.624C480.138 433.349 479.083 434.373 476.883 434.622C470.778 435.312 463.935 435.049 457.785 434.996C458.243 432.083 458.065 430.294 457.775 427.448Z"/><path fill="#3C33AD" transform="scale(0.976562 0.976562)" d="M564.312 434.928C559.456 435.2 543.862 436.595 542.407 430.887C545.252 426.177 559.286 427.441 564.33 427.518C564.406 430.114 564.52 432.326 564.312 434.928Z"/><path fill="#FEFEFE" transform="scale(0.976562 0.976562)" d="M604.652 414.6C610.028 415.146 613.899 417.558 614.351 423.383C615.097 433.002 614.624 443.06 614.736 452.695C615.092 478.981 616.285 501.478 604.255 525.817C593.17 548.243 578.493 563.62 555.998 574.99C544.481 580.811 533.614 583.249 520.872 584.86C521.109 606.812 521.077 628.765 520.778 650.716C533.373 650.5 545.971 650.412 558.568 650.452C565.844 650.444 573.026 650.224 580.282 650.916C591.321 651.968 591.864 660.283 585.216 667.571C574.1 669.584 558.4 668.822 546.804 668.833L491.744 668.743L460.06 668.92C454.228 668.928 448.668 668.95 442.763 668.504C436.049 667.996 432.222 658.447 436.775 653.668C439.306 651.452 444.488 650.589 447.757 650.35C454.19 649.879 460.826 650.329 467.251 650.345L502.501 650.198L502.61 584.638C484.906 583.78 467.242 575.719 452.758 565.932C450.205 564.051 447.69 562.174 445.273 560.117C424.102 541.894 411.072 515.981 409.072 488.119C408.105 475.553 408.933 462.899 408.969 450.279C409.017 441.448 408.452 433.483 408.986 424.605C409.507 415.938 417.52 413.568 423.696 418.791C427.217 421.769 426.551 429.441 426.472 433.945C438.796 433.269 460.285 431.821 446.826 450.494C439.822 450.832 432.972 450.767 425.962 450.746L425.957 469.658C425.967 478.052 425.909 487.698 426.999 495.998C429.337 513.792 439.397 531.899 452.097 544.45C468.386 560.362 490.385 569.063 513.151 568.597C535.952 568.46 557.713 559.034 573.409 542.494C599.352 515.492 597.952 485.736 597.348 451.011C591.519 451.175 575.749 452.286 572.856 448.254C560.154 430.548 592.21 433.842 596.792 433.995C596.33 425.797 595.22 417.424 604.652 414.6Z"/><path fill="#46E3F3" transform="scale(0.976562 0.976562)" d="M512.806 243.906C523.504 243.431 522.768 252.319 516.679 257.905C511.762 262.416 506.318 266.719 501.247 271.124L467.368 300.677L357.379 396.607L288.988 456.896C280.508 464.301 270.072 474.664 261.471 480.934C251.177 480.669 251.725 472.028 257.688 466.431C261.934 462.446 266.917 458.623 271.354 454.74L307.664 423.021C343.764 391.013 380.033 359.194 416.467 327.566L479.569 272.523C489.281 264.028 502.623 251.19 512.806 243.906Z"/><path fill="#46E3F3" transform="scale(0.976562 0.976562)" d="M461.492 243.969C463.84 244.217 466.694 244.7 468.111 246.77C473.204 254.214 459.262 263.011 454.628 267.013L429.392 289.046L343.634 364.962L295.303 407.756C285.397 416.6 272.34 428.965 261.79 436.472C256.617 436.735 253.05 433.684 254.466 428.317C254.957 426.509 255.924 424.865 257.265 423.555C260.724 420.117 266.912 415.048 270.748 411.653L299.289 386.344L384.587 311.008L435.533 266.051C442.262 260.122 454.665 248.227 461.492 243.969Z"/><path fill="#46E3F3" transform="scale(0.976562 0.976562)" d="M364.21 416.344C368.151 416.739 373.282 421.376 371.923 424.109C368.121 431.757 352.023 444.438 346.142 449.694C332.592 461.877 318.963 473.973 305.255 485.979C292.504 497.219 273.716 515.275 260.589 524.616C258.159 524.402 255.989 523.448 254.421 521.576C251.007 517.498 253.551 514.444 256.628 511.556C262.004 506.513 267.465 501.826 272.908 496.979L305.484 467.985L340.137 437.185C348.049 430.159 355.921 422.896 364.21 416.344Z"/><path fill="#46E3F3" transform="scale(0.976562 0.976562)" d="M365.313 284.93C370.849 284.767 375.298 288.913 373.252 292.758C369.793 299.259 353.756 312.17 348.608 316.752L310.66 350.498L284.74 373.381C278.727 378.67 270.622 386.118 263.92 390.231C259.427 390.313 255.538 388.417 256.018 383.094C256.231 380.723 257.43 379.405 259.109 377.789C264.575 372.533 270.429 367.635 276.176 362.678C286.012 354.259 295.79 345.772 305.509 337.218L341.505 305.233C348.622 298.909 357.707 290.417 365.313 284.93Z"/><path fill="#46E3F3" transform="scale(0.976562 0.976562)" d="M362.095 462.474C365.128 462.496 368.364 462.805 370.081 465.479C372.841 469.779 369.022 473.563 366.236 476.107C359.286 482.452 352.006 488.798 345.026 494.957L305.353 530.076L281.525 551.299C275.954 556.303 268.546 563.51 262.402 567.219C259.541 567.662 256.897 566.739 255.141 564.419C253.209 561.867 253.834 558.624 256.001 556.488C262.065 550.509 268.543 544.96 274.909 539.311L307.728 510.202L340.723 480.833C347.465 474.831 354.945 467.798 362.095 462.474Z"/><path fill="#FEFEFE" transform="scale(0.976562 0.976562)" d="M424.062 717.463C437.637 715.906 449.913 725.627 451.511 739.198C453.108 752.768 443.425 765.074 429.859 766.712C416.235 768.357 403.866 758.623 402.262 744.995C400.657 731.366 410.428 719.026 424.062 717.463Z"/><defs><linearGradient id="gradient_6" gradientUnits="userSpaceOnUse" x1="423.28436" y1="730.06537" x2="430.35443" y2="753.39258"><stop offset="0" stop-color="#3C168A"/><stop offset="1" stop-color="#622EB0"/></linearGradient></defs><path fill="url(#gradient_6)" transform="scale(0.976562 0.976562)" d="M424.267 729.226C431.339 727.679 438.318 732.184 439.821 739.265C441.325 746.345 436.778 753.297 429.688 754.757C422.659 756.204 415.78 751.705 414.29 744.685C412.8 737.665 417.257 730.76 424.267 729.226Z"/><path fill="#9B5CE1" transform="scale(0.976562 0.976562)" d="M660.453 553.715C659.727 551.757 659.599 548.216 661.108 546.54C664.915 542.314 669.319 538.613 673.579 534.854L694.776 516.054L734.753 480.141C742.771 472.883 750.752 465.571 758.92 458.475C767.24 451.246 774.207 460.864 768.592 467.065C762.425 473.874 754.251 480.068 747.358 486.301L704.81 524.621C697.048 531.493 683.794 542.62 676.852 549.82L676.496 550.195C675.307 555.773 660.919 564.787 660.453 553.715Z"/><path fill="#6A1386" transform="scale(0.976562 0.976562)" d="M676.496 550.195C675.307 555.773 660.919 564.787 660.453 553.715C667.553 559.817 670.575 555.569 676.496 550.195Z"/><path fill="#3C33AD" transform="scale(0.976562 0.976562)" d="M296.03 715.774C296.541 715.891 296.859 716.072 297.346 716.286L295.482 717.616L296.269 717.904L295.969 718.541C292.274 720.459 287.191 722.096 283.184 723.521C281.908 723.693 281.024 723.66 279.754 723.651L279.486 723.106C282.216 722.851 292.688 717.226 296.03 715.774Z"/></svg>